# xmcd CD database file
#
# Track frame offsets:
#	150
#	40921
#	62920
#	79140
#	94978
#	152989
#	175423
#	200465
#	225541
#	243219
#	263450
#	279802
#
# Disc length: 4101 seconds
#
# Revision: 0
# Processed by: cddbd v1.5PL3 Copyright (c) Steve Scherf et al.
# Submitted via: CDex 1.51
#
DISCID=9910030c
DTITLE=Oscar Peterson - How high the moon
DYEAR=1900
DGENRE=Jazz
TTITLE0=How high the moon
TTITLE1=Swinging on a star
TTITLE2=Heatwave
TTITLE3=Anything goes
TTITLE4=Jam session
TTITLE5=FLamigo
TTITLE6=Seven come eleven
TTITLE7=Falling in love with love
TTITLE8=The continental
TTITLE9=Noreen's nocturne
TTITLE10=52nd street theme
TTITLE11=Gypsy in my soul
EXTD=
EXTT0=
EXTT1=
EXTT2=
EXTT3=
EXTT4=
EXTT5=
EXTT6=
EXTT7=
EXTT8=
EXTT9=
EXTT10=
EXTT11=
PLAYORDER=
